<svg width="52" height="24" viewBox="0 0 52 24" fill="none" xmlns="http://www.w3.org/2000/svg">
<g id="Group 7">
<rect id="Rectangle 20" x="0.5" y="0.5" width="51" height="23" rx="11.5" fill="#F8F8F8" stroke="#3E8BC3"/>
<g id="mingcute:transfer-line" clip-path="url(#clip0_5_3682)">
<g id="Group">
<path id="Vector" d="M32.1666 13.9167C32.3472 13.9169 32.5208 13.986 32.6521 14.1099C32.7834 14.2339 32.8624 14.4033 32.8729 14.5835C32.8835 14.7637 32.8249 14.9412 32.709 15.0796C32.5931 15.2181 32.4288 15.3071 32.2495 15.3284L32.1666 15.3333H22.5432L24.1674 16.9575C24.2944 17.085 24.3682 17.2561 24.3737 17.4359C24.3792 17.6158 24.316 17.791 24.197 17.926C24.078 18.061 23.912 18.1456 23.7329 18.1627C23.5537 18.1798 23.3748 18.128 23.2324 18.0179L23.1658 17.9591L20.4529 15.2462C19.9819 14.7759 20.2836 13.9833 20.9225 13.9209L21.004 13.9167H32.1666ZM28.8325 7.04088C28.9545 6.91892 29.1167 6.84566 29.2889 6.83483C29.461 6.82401 29.6312 6.87637 29.7675 6.98209L29.8341 7.04088L32.547 9.7538C33.018 10.2241 32.7163 11.0168 32.0774 11.0791L31.9959 11.0833H20.8333C20.6527 11.0831 20.4791 11.014 20.3478 10.8901C20.2165 10.7661 20.1375 10.5967 20.127 10.4165C20.1164 10.2363 20.175 10.0588 20.2909 9.92037C20.4068 9.78193 20.5711 9.69295 20.7504 9.67163L20.8333 9.66667H30.4567L28.8325 8.04246C28.6997 7.90963 28.6251 7.72949 28.6251 7.54167C28.6251 7.35385 28.6997 7.17371 28.8325 7.04088Z" fill="#3E8BC3"/>
</g>
</g>
</g>
<defs>
<clipPath id="clip0_5_3682">
<rect width="17" height="17" fill="white" transform="translate(18 4)"/>
</clipPath>
</defs>
</svg>
