<svg width="20" height="20" viewBox="0 0 20 20" fill="none" xmlns="http://www.w3.org/2000/svg">
<g clip-path="url(#clip0_5_3693)">
<path d="M19.8171 18.9266L13.7443 12.8166C14.8762 11.4609 15.5583 9.71688 15.5583 7.8125C15.5583 3.49781 12.0605 0 7.74585 0C3.43116 0 -0.0666504 3.49781 -0.0666504 7.8125C-0.0666504 12.1272 3.43116 15.625 7.74585 15.625C9.70616 15.625 11.4968 14.9013 12.8687 13.7081L18.933 19.8106C19.1771 20.0547 19.5731 20.0547 19.8171 19.8106C20.0609 19.5666 20.0609 19.1709 19.8171 18.9266H19.8171ZM7.74585 14.3853C4.11585 14.3853 1.17304 11.4425 1.17304 7.8125C1.17304 4.1825 4.11585 1.23969 7.74585 1.23969C11.3758 1.23969 14.3187 4.1825 14.3187 7.8125C14.3187 11.4425 11.3758 14.3853 7.74585 14.3853Z" fill="#999999"/>
</g>
<defs>
<clipPath id="clip0_5_3693">
<rect width="20" height="20" fill="white"/>
</clipPath>
</defs>
</svg>
