<svg width="24" height="462" viewBox="0 0 24 462" fill="none" xmlns="http://www.w3.org/2000/svg">
<path d="M0.1 12C0.1 5.42782 5.42781 0.1 12 0.1C18.5722 0.1 23.9 5.42781 23.9 12V450C23.9 456.572 18.5722 461.9 12 461.9C5.42781 461.9 0.1 456.572 0.1 450V12Z" fill="white" stroke="#999999" stroke-width="0.2"/>
<path d="M15.1904 21.1484V24.7129H16.6455V25.2402H15.1904V29.7617H14.5752V21.1484H15.1904ZM12.9834 22.0859C12.9736 24.4785 11.7822 26.6953 8.99902 28.0723L8.65723 27.584C10.9521 26.4512 12.2021 24.6836 12.3584 22.6035H9.03809V22.0859H12.9834Z" fill="#646464"/>
<path d="M11.7725 53.6406V55.3301C12.6416 55.2861 13.5254 55.2129 14.3604 55.0859L14.4092 55.5547C12.417 55.9062 10.2686 55.916 8.70605 55.916L8.6084 55.3887C9.35547 55.3887 10.2344 55.3887 11.1572 55.3496V53.6406H11.7725ZM11.7627 50.8379C11.7627 52.0391 12.7783 52.9863 14.0381 53.3574L13.7451 53.8555C12.7051 53.5234 11.8408 52.835 11.46 51.9023C11.0938 52.8838 10.2344 53.6064 9.2041 53.9434L8.90137 53.4648C10.1514 53.0742 11.1475 52.0879 11.1475 50.8379H9.09668V50.3105H11.1572V49.207H11.7725V50.3105H13.8721V50.8379H11.7627ZM15.5713 49.1484V57.7715H14.9561V49.1484H15.5713Z" fill="#646464"/>
<path d="M12.8174 78.3594C12.8174 79.5996 14.5361 80.5859 15.9131 80.8008L15.6787 81.2891C14.4043 81.0547 12.998 80.3223 12.4854 79.2383C11.9629 80.3223 10.5518 81.0547 9.30176 81.2891L9.05762 80.8008C10.4248 80.5859 12.1436 79.5996 12.1436 78.3594V78.2227H9.31152V77.7148H15.6396V78.2227H12.8174V78.3594ZM16.4111 82.0996V82.627H12.7686V85.752H12.1729V82.627H8.55957V82.0996H16.4111Z" fill="#646464"/>
<path d="M15.1904 106.277V110.721H14.5654V106.805H9.81934V106.277H15.1904Z" fill="#646464"/>
<path d="M15.3662 137.154V137.672H9.8877V133.277H10.5029V137.154H15.3662Z" fill="#646464"/>
<path d="M15.1611 160.229V160.746H10.5225V164.184H15.2588V164.701H9.90723V160.229H15.1611Z" fill="#646464"/>
<path d="M15.2197 187.131V189.709H10.415V191.281H15.376V191.799H9.8291V189.201H14.624V187.639H9.7998V187.131H15.2197Z" fill="#646464"/>
<path d="M15.2588 215.219V219.711H9.8584V215.219H15.2588ZM10.4736 215.746V219.193H14.6338V215.746H10.4736Z" fill="#646464"/>
<path d="M10.4834 247.131V248.801H14.5947V247.131H15.2197V251.73H9.86816V247.131H10.4834ZM10.4834 251.193H14.5947V249.348H10.4834V251.193Z" fill="#646464"/>
<path d="M12.8662 277.488C12.8662 278.992 14.1553 279.959 15.6006 280.301L15.2979 280.809C14.1162 280.491 13.0225 279.793 12.5635 278.68C12.1045 279.793 11.0205 280.491 9.8291 280.809L9.52637 280.301C10.9619 279.959 12.251 278.992 12.2607 277.488V276.053H12.8662V277.488Z" fill="#646464"/>
<path d="M12.5049 305.082C14.0186 305.092 15.2002 306.059 15.2002 307.436C15.2002 308.803 14.0186 309.779 12.5049 309.779C10.9814 309.779 9.7998 308.803 9.80957 307.436C9.7998 306.059 10.9814 305.092 12.5049 305.082ZM12.5049 305.629C11.333 305.629 10.415 306.41 10.415 307.436C10.415 308.461 11.333 309.262 12.5049 309.252C13.6768 309.262 14.585 308.461 14.585 307.436C14.585 306.41 13.6768 305.629 12.5049 305.629Z" fill="#646464"/>
<path d="M12.8955 336.371C12.8955 337.855 14.0771 338.871 15.4736 339.262L15.1611 339.76C14.0137 339.403 13.0078 338.671 12.5928 337.553C12.168 338.671 11.1719 339.403 10.0244 339.76L9.71191 339.262C11.1084 338.871 12.2803 337.855 12.2803 336.371V335.658H9.94629V335.141H15.249V335.658H12.8955V336.371Z" fill="#646464"/>
<path d="M12.876 364.791C12.876 366.168 14.0088 367.145 15.4053 367.506L15.0928 367.984C13.9404 367.652 12.9297 366.939 12.5244 365.855C12.124 366.939 11.1182 367.652 9.97559 367.984L9.66309 367.506C11.04 367.145 12.1729 366.168 12.1729 364.791V364.479H9.86816V363.951H12.2217V362.721H12.8467V363.951H15.1904V364.479H12.876V364.791Z" fill="#646464"/>
<path d="M15.249 390.209V390.727H10.5029V392.152H15.1807V392.68H10.5029V394.203H15.3369V394.721H9.90723V390.209H15.249Z" fill="#646464"/>
<path d="M15.3467 420.238V420.756H14.1162V424.242H15.4834V424.76H9.63379V424.242H10.9912V420.756H9.76074V420.238H15.3467ZM11.6162 424.242H13.501V420.756H11.6162V424.242Z" fill="#646464"/>
<path d="M15.4443 443.873V444.4H9.67285V443.873H12.251V442.682H12.876V443.873H15.4443ZM12.5537 445.064C13.7646 445.064 14.6338 445.699 14.6436 446.598C14.6338 447.496 13.7646 448.131 12.5537 448.131C11.3525 448.131 10.4736 447.496 10.4834 446.598C10.4736 445.699 11.3525 445.064 12.5537 445.064ZM12.5537 445.602C11.7334 445.592 11.1084 446.021 11.1084 446.598C11.1084 447.174 11.7334 447.613 12.5537 447.604C13.3838 447.613 14.0088 447.174 14.0088 446.598C14.0088 446.021 13.3838 445.592 12.5537 445.602Z" fill="#646464"/>
</svg>
